<?xml version="1.0" encoding="UTF-8"?>
<svg version="1.1" viewBox="0 0 906.2 128.2" xmlns="http://www.w3.org/2000/svg">
	<path d="m56.34 127.8c-19.33-1.982-39.69-15.63-48.74-32.66-5.829-10.97-7.659-18.49-7.604-31.21 0.0421-9.681 0.4714-12.78 2.715-19.58 6.447-19.55 22.58-35.49 42.19-41.7 9.978-3.161 28.02-3.161 38 0 18.56 5.881 34.96 21.44 41.13 39.03l1.842 5.25h654.1l1.703-4.75c4.456-12.43 15.8-26.29 27.08-33.07 25.06-15.07 57.9-11.18 78.16 9.259 12.42 12.53 18.27 25.49 19.21 42.56 0.644 11.73-1.205 21.25-6.081 31.31-8.063 16.63-23.91 29.51-42.1 34.22-7.747 2.006-23.25 2.006-31 0-18.05-4.673-33.98-17.61-42.21-34.25l-3.594-7.272-656.2 0.1364-3.835 7.827c-11.77 24.02-37.19 37.74-64.72 34.91z"/>
</svg>
