<svg xmlns="http://www.w3.org/2000/svg" width="231" height="32.999" viewBox="0 0 231 32.999"><g transform="translate(7372 1586.999)" fill="none"><path d="M-7173.061-1565h-166.878a16.509,16.509,0,0,1-15.562,11,16.5,16.5,0,0,1-16.5-16.5,16.5,16.5,0,0,1,16.5-16.5,16.507,16.507,0,0,1,15.88,12h166.242a16.5,16.5,0,0,1,15.878-12,16.5,16.5,0,0,1,16.5,16.5,16.5,16.5,0,0,1-16.5,16.5A16.506,16.506,0,0,1-7173.061-1565Z" stroke="none"/><path d="M -7157.5 -1555.000244140625 C -7153.3603515625 -1555.000244140625 -7149.4677734375 -1556.612548828125 -7146.54052734375 -1559.540161132813 C -7143.61279296875 -1562.4677734375 -7142.00048828125 -1566.359985351563 -7142.00048828125 -1570.499755859375 C -7142.00048828125 -1574.640258789063 -7143.61279296875 -1578.532592773438 -7146.54052734375 -1581.4599609375 C -7149.4677734375 -1584.387084960938 -7153.35986328125 -1585.999145507813 -7157.5 -1585.999145507813 C -7160.9443359375 -1585.999145507813 -7164.20458984375 -1584.89404296875 -7166.9287109375 -1582.803344726563 C -7169.56787109375 -1580.777954101563 -7171.5166015625 -1577.909790039063 -7172.416015625 -1574.727172851563 L -7172.6220703125 -1573.999267578125 L -7173.37841796875 -1573.999267578125 L -7339.6201171875 -1573.999267578125 L -7340.37646484375 -1573.999267578125 L -7340.58251953125 -1574.727172851563 C -7341.482421875 -1577.90966796875 -7343.431640625 -1580.77783203125 -7346.07080078125 -1582.803344726563 C -7348.79541015625 -1584.89404296875 -7352.05615234375 -1585.999145507813 -7355.50048828125 -1585.999145507813 C -7359.640625 -1585.999145507813 -7363.53271484375 -1584.387084960938 -7366.4599609375 -1581.4599609375 C -7369.3876953125 -1578.532592773438 -7371 -1574.640258789063 -7371 -1570.499755859375 C -7371 -1566.359985351563 -7369.3876953125 -1562.4677734375 -7366.4599609375 -1559.540161132813 C -7363.5322265625 -1556.612548828125 -7359.64013671875 -1555.000244140625 -7355.50048828125 -1555.000244140625 C -7352.23046875 -1555.000244140625 -7349.10400390625 -1556.005981445313 -7346.458984375 -1557.90869140625 C -7343.8681640625 -1559.772094726563 -7341.93994140625 -1562.339233398438 -7340.88134765625 -1565.332641601563 L -7340.6455078125 -1565.999267578125 L -7339.9384765625 -1565.999267578125 L -7173.060546875 -1565.999267578125 L -7172.353515625 -1565.999267578125 L -7172.11767578125 -1565.33251953125 C -7171.0595703125 -1562.339111328125 -7169.13134765625 -1559.77197265625 -7166.541015625 -1557.90869140625 C -7163.89599609375 -1556.005981445313 -7160.77001953125 -1555.000244140625 -7157.5 -1555.000244140625 M -7157.5 -1554.000244140625 C -7164.6845703125 -1554.000244140625 -7170.79541015625 -1558.591674804688 -7173.060546875 -1564.999267578125 L -7339.9384765625 -1564.999267578125 C -7342.2041015625 -1558.591674804688 -7348.31591796875 -1554.000244140625 -7355.50048828125 -1554.000244140625 C -7364.6123046875 -1554.000244140625 -7372 -1561.387817382813 -7372 -1570.499755859375 C -7372 -1579.613525390625 -7364.6123046875 -1586.999145507813 -7355.50048828125 -1586.999145507813 C -7347.94677734375 -1586.999145507813 -7341.57861328125 -1581.925659179688 -7339.6201171875 -1574.999267578125 L -7173.37841796875 -1574.999267578125 C -7171.42041015625 -1581.925659179688 -7165.0537109375 -1586.999145507813 -7157.5 -1586.999145507813 C -7148.38818359375 -1586.999145507813 -7141.00048828125 -1579.613525390625 -7141.00048828125 -1570.499755859375 C -7141.00048828125 -1561.387817382813 -7148.38818359375 -1554.000244140625 -7157.5 -1554.000244140625 Z" stroke="none" fill="#707070"/></g></svg>