<svg xmlns="http://www.w3.org/2000/svg" viewBox="0 0 700 700"><circle cx="350" cy="350" r="350"/><path fill="#fff" d="M219.4 569.5c-11.1-.7-22-3.6-31-8.2-11.3-5.8-19.8-14.5-25.6-26.1-1.8-3.6-2.8-6.3-3.4-8.7-3-13.1-3.2-28.7-.5-44.7.4-2.5 1-5.4 1.5-7.3.2-.8.7-3.1 1.1-5.2 3.4-16.7 8.6-36.8 16.1-61.9 11-36.8 27.1-84.3 44.9-132.4 1.6-4.5 4.7-12.6 5-13.4l.2-.5-1 1c-7.5 7.2-35.8 26.3-76.1 51.3-5.9 3.7-13.3 10.3-18.9 17.1-8.1 9.7-13.9 21.1-17.2 33.7-4.5 17.3-4.2 37.2.7 58.4 1.4 5.8 3.5 13.1 5.3 18 .2.6.4 1 .3 1-.1 0-.1 0-2-3.5-14.5-26.5-22.8-52.4-24.6-77-.5-6.2-.5-14.1 0-20.2 2-28.9 13.5-56.2 33.9-80.5 4.7-5.6 9.1-10.2 16.4-17.4 4.5-4.3 5-4.8 6.3-5.8.8-.6 1.8-1.4 2.3-1.8 3.5-3.1 7.7-6.4 14.9-11.5 8.2-5.8 21.8-14.9 34.7-23.2 4-2.6 5.6-3.7 10.6-7.2 17.4-12.5 39.1-29.4 59.4-46.4 5.7-4.7 5.8-4.8 8.3-7.1 5.7-5.3 9.9-8.3 12.6-9.2 1-.3 2.1-.3 2.6 0 1.4.8 1.3 4-.3 9-.9 2.8-1.5 4-3.8 8.3-12.3 22.6-24.1 46.7-35.4 72.3-19.8 44.5-38.2 93.5-54.2 144-8.5 26.8-16.4 54.8-21.7 76.3l-.6 2.5.3-.2c3.4-2 7.2-3.8 11.3-5.3 11.4-4.1 25.5-5.9 37.3-4.9 7.1.7 13.9 2.4 20.7 5.2 1.9.8 5.7 2.7 7.6 3.8 13.8 8.1 24.3 20.8 29.8 35.8 5.2 14.3 5.4 30.2.7 44.7-4.4 13.5-12.8 25.1-24.3 33.6-8.6 6.4-18.9 10.8-29.5 12.6-3.8.6-6.2.8-10.6.9-1.9.1-3.8.1-4.1.1zm294.3-64.7c-23.3-1.2-44.1-7.6-58.6-17.9-.5-.3-1.2-.8-1.6-1-4.9-2.7-11.1-7-16.2-11.4-3.2-2.8-7.6-6.9-10.6-10.2-14.5-15.6-24.4-33.9-27.6-50.9-.7-3.8-1-6.5-1-10.5-.1-4.3.1-7.1.8-10.7 2.2-12.1 9.2-22.8 20.4-31.1 8.5-6.3 19.3-11.3 31.6-14.4 16.3-4.2 34.4-5 50.2-2.3 4.4.8 8.6 1.8 12.4 3.1.8.3 2.1.6 2.9.8 6.3 1.3 12.6 3.4 18.9 6.1 2.5 1.1 7.3 3.5 9.7 4.9 19.9 11.1 38 28.3 49 46.7 1.7 2.8 2.3 3.9 3.8 7 4.5 9 7.1 17.5 8 26.5.2 2.1.2 7.7.1 9.7-1.4 15.3-8.7 28-21.6 37.7-12.2 9.1-29 15.1-48.4 17.3-5.3.6-7.6.7-14.4.7-3.4 0-6.9 0-7.8-.1zm48.9-11.2c3.3-.4 5.8-1 8.8-2 6.5-2.2 12.2-5.7 17.3-10.8 4-4 7-8.3 9.7-13.8 6.8-13.9 7.5-29.1 2.1-41.8-5-11.6-14.6-20.3-27.6-25.1-7.6-2.8-15.3-3.7-22.2-2.8-11.4 1.5-21.1 7.7-28.2 18.1-2.5 3.7-5.2 8.9-6.9 13.7-.9 2.5-1.1 3.1-1.4 4.3-1.7 5.8-2.4 10.7-2.4 16.5 0 3.8.3 6.5 1 10 1.4 6.9 4.6 13.5 9.2 18.6 5.5 6.3 13.2 10.9 22.5 13.5 2.7.8 6.4 1.4 9.3 1.7 1.5.2 7.4.1 8.8-.1zm-4-20.4c-2.6-.2-4.8-.8-7.1-1.7-3.1-1.3-6.4-3.9-8.5-6.6-3.3-4.3-5-9.8-5.1-16 0-1 .2-3.3.4-4.8 1.3-8.1 6-15.4 12.6-19.8 2.6-1.7 6-3.1 8.8-3.7 1.4-.3 3.6-.4 5.3-.3 6 .4 11.3 3.1 15.1 7.7 3.8 4.5 5.9 11.3 5.5 17.8-.3 4.3-1.2 7.9-2.9 11.6-4.1 8.6-11.6 14.5-19.9 15.6-1 .1-3.5.2-4.2.2zM401 490.5c-2.3-2.4-10-9.1-15.8-13.6-37.7-30-79.8-49.7-118.9-55.6-6.9-1.1-16.4-1.9-20.7-1.9-.5 0-.9 0-.9-.1 0-.2 13-6.2 22.6-10.5 31.5-14 61-25.3 84.5-32.5l4-1.2s.3.8.6 1.8c3.6 11.8 9.5 29.3 14.2 42.4 11.6 32.5 22.1 56.9 30.4 70.5.4.6.7 1.1.7 1.1-.1.1-.3 0-.7-.4zm-172.7-99c0-.1 2-7.1 3.3-11.4 6-20.2 12.9-41.4 20.5-62.2 13.6-37.5 29.5-75.3 47.4-112.9 5.9-12.3 13.7-27.9 19.7-39.5 4.8-9.1 12.2-22.7 13.1-24.1.2-.3.2-.3.4 8.3 1.4 57.5 6.7 117.9 15 169.1 1.1 6.5 2.6 15.5 3.4 19.4.2.9.3 1.7.3 1.7s-1.3.4-2.9.9c-27.1 7.8-62.8 22.4-103.1 42.2-5.2 2.6-15.9 8-16.6 8.4-.2.2-.5.3-.5.1zm157.3-63.2c-.1-.3-2-10-2.8-13.9-7.1-38.1-12.3-77.9-14.6-111.5-.9-13.4-1.3-23.4-1.4-35.6-.1-8.2.1-19.6.3-19.4 0 0 .2.8.4 1.7 2.2 10.6 6.7 24.9 11.7 37.3 13.9 34.2 33.9 63 58.5 84.1 20 17.1 42.9 29.3 68.5 36.4 2.5.7 7.6 2 9.6 2.4.8.2 1.5.4 1.6.4.1 0-.7.1-1.6.1-4.4 0-13.9.4-22.6 1.1-34.6 2.5-71.1 8.3-104.9 16.8-1.4.3-2.5.6-2.6.6s0-.4-.1-.5zm75.4-93c-7.3-.8-13.7-3.7-18.8-8.6-7.4-7.1-10.8-17.5-9.1-27.6.6-3.3 1.5-6.1 3-9.1 4.7-9.2 14-15.6 24.3-16.6 1.8-.2 4.7-.2 6.5 0 7 .7 13.4 3.7 18.3 8.5 2.7 2.7 4.5 5 6.1 8.3 2.3 4.5 3.3 8.9 3.3 14 0 6-1.5 11.4-4.7 16.5-4.2 6.7-11.1 11.8-18.9 13.7-1.4.3-3 .6-4.4.8-.7.1-4.8.2-5.6.1z"/></svg>