<svg viewBox="0 0 1288 342" xmlns="http://www.w3.org/2000/svg"><path d="M918.2 340.4c-5.714-1.346-9.161-3.44-12.96-7.875-6.228-7.276-7.649-17.79-3.274-24.23 1.408-2.072 6.289-6.131 11.25-9.356a2503.26 2503.26 0 0014.25-9.332c6.372-4.22 16.76-16.28 35-40.62 26.47-35.33 38.39-56.88 52.94-95.79 11.37-30.39 17.27-56.49 17.46-77.25.102-10.82.028-11.2-3.607-18.56-4.654-9.424-13.02-17.7-22.26-22.03-10.74-5.024-23.4-4.159-36.03 2.46-13.08 6.856-26.63 23.85-30.96 38.83-2.67 9.245-2.223 30.46.954 45.34 5.816 27.24 6.635 32.17 6.262 37.71-.443 6.598-2.436 9.448-7.237 10.35-7.348 1.378-16.53-6.182-22.66-18.66-8.002-16.28-11.19-32.62-11.2-57.41-.01-35.4 8.122-57.38 26.99-72.94 7.717-6.365 21.83-13.65 31.35-16.18 9.894-2.631 29.93-2.428 41.33.42 18.99 4.746 32.01 11.73 44.18 23.71 19.77 19.46 26.09 42.28 20.59 74.46-8.132 47.61-45.37 118.2-94.82 179.8-4.08 5.079-7.836 9.493-8.347 9.809-.51.315-.93.885-.93 1.265s13.84.541 30.75.358c17.33-.188 36.86.16 44.75.799 29.25 2.364 53.46 6.872 56.49 10.52.823.991 1.108 3.72.836 8-.48 7.52-2.553 11.07-8.066 13.82-3.317 1.65-4.513 1.696-14.44.546-6.267-.726-23.44-1.267-40.82-1.287-34.17-.038-42.63.867-70.94 7.582-28.61 6.79-37.74 7.912-46.84 5.767zm-907.3-2.859C5.654 334.532.51 329.339.51 327.051c0-2.823 4.602-6.791 15.29-13.19 13.32-7.969 24.08-18.26 33.32-31.87 6.89-10.15 26.26-41 27.07-43.11.423-1.101-.946-1.385-6.674-1.385-7.82 0-13.06-1.804-15.54-5.353-2.032-2.901-1.873-8.97.285-10.91 1.457-1.31 21.85-6.861 34.03-9.262 2.604-.514 3.9-1.708 6.3-5.811 4.666-7.976 24.95-48.87 30.35-61.16 9.719-22.16 38.43-94.36 42.47-106.8 4.284-13.18 4.777-16.65 3.589-25.22-.63-4.541-.45-5.254 1.919-7.623 5.937-5.937 19.04-6.413 29.73-1.079 8.526 4.256 19.45 12.48 21.88 16.47 2.296 3.766 2.489 8.635.803 20.3-2.12 14.66 1.395 61.27 7.706 102.2 6.6 42.8 23.06 116.9 32.81 147.8 6.243 19.74 7.25 21.84 12.68 26.42 5.426 4.576 6.33 7.709 3.42 11.86-3.738 5.336-11.78 6.529-24.5 3.634-5.735-1.304-7.395-2.154-9.436-4.829-7.276-9.539-19.62-43.37-28.49-78.09-2.812-11-5.272-20.49-5.467-21.09-.245-.752-2.183-.84-6.196-.283-3.212.447-16.87 1.276-30.34 1.843-28.7 1.208-57 2.858-62.1 3.62-3.402.51-3.951 1.17-10.15 12.23-3.605 6.428-10.25 18.66-14.76 27.19-23.49 44.4-46.77 67.03-68.9 66.99-4.346-.007-6.734-.663-10.71-2.94zm197-132.1c.529-.5-2.061-19.33-6.279-45.65-8.538-53.28-11.55-73.84-13.08-89.27-.626-6.306-1.265-11.59-1.42-11.75-.367-.368-17.1 41.91-28.19 71.21-9.451 24.98-19.33 48.8-27.34 65.91-2.799 5.979-5.089 11.09-5.089 11.35 0 .857 80.47-.932 81.4-1.81zm957.1 127.5c-14.34-2.709-26.02-8.245-38.75-18.36-10.22-8.125-17.04-16.15-22.2-26.15-8.845-17.13-12.3-35.05-13.21-68.48-1.66-61.15 9.199-117.3 31.8-164.5 16.08-33.55 33.39-51.51 53.13-55.15 8.422-1.552 15.19-.442 27.22 4.461 10.55 4.303 55.81 29.84 60.26 34 5.526 5.166 11.39 23.68 18.25 57.59 9.828 48.59 8.835 92.02-3.048 133.4-12.96 45.15-39.86 84.06-67.8 98.1-12.31 6.186-29.56 8.093-45.65 5.051zm19.5-28.53c32.99-5.145 60.87-50.04 69.93-112.6 1.103-7.621 2.481-22.41 3.061-32.87 3.205-57.74-8.476-98.73-32.49-114-11.81-7.511-29.49-12-37.64-9.557-5.654 1.694-15.18 11.32-20.88 21.08-15.05 25.81-30.03 73.84-35.42 113.5-3.897 28.74-4.756 61.98-2.064 79.85 4.625 30.69 19.22 50.46 40.21 54.48 6.585 1.262 7.858 1.271 15.29.113zM697 321.381c-7.732-3.857-13.09-11.47-15.94-22.63l-1.226-4.807-3.817 7.264c-4.549 8.656-10.18 14.77-14.48 15.72-8.239 1.81-18.81-3.403-25.6-12.62-7.744-10.52-7.798-10.9-8.198-57.37-.227-26.36-.742-41.98-1.441-43.75-1.053-2.666-7.1-8.745-8.697-8.745-.432 0-1.303 3.328-1.936 7.396-1.421 9.142-6.34 24.8-10.71 34.1-8.91 18.95-24.2 28.41-37.18 22.99-1.992-.832-3.818-1.317-4.058-1.077-.24.24-1.695 5.533-3.233 11.76-5.356 21.69-13.72 38.49-22.32 44.82-8.133 5.988-19.15 7.353-28.35 3.511-5.741-2.399-12.79-9.926-16.16-17.25-3.08-6.7-6.132-16.8-6.262-20.71-.06-1.804-.196-1.751-1.175.46-13.72 30.98-19.03 37.61-29.38 36.65-6.831-.635-11.93-3.394-17.72-9.585-10.45-11.17-11.61-18.04-11.64-69.06-.022-31.27-.19-34.75-1.789-37.18-2.402-3.64-7.185-7.28-8.153-6.202-.434.483-1.552 4.827-2.485 9.653-.933 4.826-3.719 15.85-6.193 24.5-18.46 64.54-35.35 89.24-54.95 80.34-5.345-2.428-10.74-8.874-13.78-16.47-1.352-3.379-2.788-6.144-3.19-6.144s-2.362 4.05-4.355 9c-2.939 7.3-4.757 10.17-9.623 15.17-4.992 5.132-6.995 6.455-11.92 7.871-10.45 3.004-19.78-.49-26.17-9.8-8.529-12.42-9.872-21.88-8.458-59.57 1.638-43.69 3.601-68.21 5.955-74.41 1.564-4.114 6.374-6.872 12.06-6.916 6.138-.047 10.62 2.498 14.65 8.318 3.525 5.093 3.669 10.6.573 21.83-3.764 13.66-6.484 38.33-7.735 70.18-1.201 30.57 1.569 36.19 9.73 19.75 10.12-20.39 16.01-39.8 19.78-65.18 1.124-7.563 2.936-19.71 4.028-27 1.25-8.348 1.907-17.32 1.772-24.25-.322-16.59 2.457-20.5 14.56-20.5 14.64 0 20.29 7.783 14.71 20.26-3.497 7.814-9.034 50.76-9.728 75.46-.392 13.94-.193 22.14.64 26.37 1.26 6.4 3.877 12.9 5.195 12.9 2.72 0 10.52-15.13 15.72-30.5 5.204-15.37 17.15-60.13 18.14-68.01 1.096-8.642.825-10.67-3.107-23.26-4.784-15.31-3.459-29.38 3.482-36.95 2.691-2.936 4.111-3.627 8.271-4.027 7.274-.699 10.88 1.47 14.08 8.46 2.51 5.48 2.541 5.851 1.861 21.32l-.692 15.75 2.801 1.943c1.541 1.07 6.581 3.93 11.2 6.354 10.89 5.72 17.21 11.41 20.08 18.1 2.207 5.13 2.231 5.591 1.13 21.28-.62 8.82-2.272 26.16-3.669 38.54-2.802 24.81-2.646 33.8.645 37.09 1.05 1.051 2.248 1.908 2.66 1.904 2.959-.027 11.99-21.47 22.63-53.71 7.55-22.88 12.29-41.69 13.21-52.4.35-4.063 1.248-8.67 1.996-10.24.748-1.57 2.49-7.543 3.87-13.27 2.96-12.28 4.246-15.03 8.975-19.18 7.36-6.462 16.74-6.487 29.54-.08 8.903 4.456 20.46 14.55 24.45 21.36 3.805 6.492 4.604 12.12 5.9 41.53l1.17 26.5 3.929.32c5.378.44 10.93-2.291 14.18-6.971 2.965-4.278 7.639-19.69 9.926-32.73 2.235-12.75 1.906-18.86-1.582-29.4-5.502-16.62-3.845-31.97 4.24-39.27 3.828-3.458 4.386-3.65 9.425-3.232 6.064.502 8.574 2.272 11.58 8.16 2.726 5.342 3.242 12.24 1.869 24.99-1.417 13.16-1.932 12.34 12.77 20.37 13.2 7.216 19.44 13.06 21.56 20.19 1.786 6.013 1.197 17.59-2.571 50.56-1.194 10.45-2.204 24.33-2.244 30.84-.07 11.3.035 11.92 2.307 13.77 2.973 2.41 4.278 1.496 7.81-5.475 5.023-9.912 20.31-52.98 20.31-57.21 0-2.946 5.068-24.39 8.11-34.31 7.48-24.41 16.27-42.47 23.09-47.45 7.464-5.447 24.06 1.442 32.91 13.66 8.04 11.1 8.117 33.42.135 39.7-2.276 1.79-7.249 2.777-7.249 1.438 0-2.488-3.472-16.39-4.96-19.86-1.637-3.82-5.186-7.594-7.14-7.594-2.453 0-15.14 41.29-19.83 64.53-2.546 12.62-4.369 42.63-3.026 49.79 1.12 5.973 3.737 10.04 6.75 10.49 3.492.521 8.377-8.683 15.03-28.31 3.104-9.17 10.43-49.53 10.01-55.11-.323-4.228.778-5.386 5.122-5.386 4.346 0 18.89 6.443 19.78 8.762.307.8-.169 3.768-1.057 6.596-2.132 6.786-4.447 22.6-5.218 35.64-.521 8.821-.285 11.78 1.476 18.48 1.154 4.391 2.791 8.666 3.64 9.5 1.38 1.358 1.703 1.307 3.066-.483 2.11-2.769 15.66-29.82 18.77-37.48 1.404-3.454 4.384-12.35 6.622-19.76 7.197-23.83 17.83-52.62 20.16-54.57 1.185-.99 3.314-1.664 4.732-1.5 2.438.284 2.594.652 2.885 6.8.779 16.47-8.688 58.92-18.91 84.8-8.1 20.51-19.89 40.53-26.37 44.78-3.596 2.357-12.64 2.03-18.19-.655-4.198-2.032-10.14-8.645-13.35-14.87-1.25-2.42-1.28-2.398-3.129 2.307-4.13 10.52-11.46 19.31-18.57 22.29-4.75 1.991-14.04 1.64-18.74-.708zm-169.9-31.33c4.165-6.304 10.94-23.48 12.86-32.6 1.782-8.469.968-20.08-2.798-39.92-1.736-9.144-2.2-15.24-2.2-28.91 0-15.99-.15-17.43-1.941-18.75-3.309-2.43-5.531-1.735-7.197 2.25-3.773 9.029-6.358 19.73-10.22 42.32-3.654 21.36-4.407 30.56-3.905 47.78.416 14.25.824 17.6 2.769 22.66 2.394 6.229 6.206 10.98 8.276 10.32.672-.215 2.635-2.531 4.362-5.146zM828 92.451c-1.683-1.86-1.662-2.169.487-7.165 2.74-6.37 3.626-14.91 2.123-20.47-1.328-4.91-6.515-10.36-9.858-10.36-7.798 0-10.93-8.061-8.15-21 1.22-5.696 4.377-10.04 7.406-10.19 2.77-.142 17.15 2.187 22 3.564 6.016 1.708 7.762 5.756 7.178 16.64-.977 18.2-10.87 46.35-17.54 49.92-1.46.781-2.288.57-3.648-.933z"/></svg>