<svg xmlns="http://www.w3.org/2000/svg" viewBox="0 0 5294.6396 4539.6826">
  <path d="M1296.649 4539.51c-114.951-7.209-227.916-36.966-320.081-84.313-117.216-60.217-205.024-149.913-264.357-270.04-18.48-37.414-29.07-64.736-34.92-90.087-31.265-135.476-33.196-296.535-5.546-462.44 4.32-25.912 10.368-56.323 15.017-75.5 1.934-7.974 7.093-32.208 11.464-53.851 34.834-172.455 89.102-380.553 166.938-640.148 114.07-380.435 280.7-871.918 464.31-1369.5 17.061-46.234 48.267-129.883 51.644-138.432l2.145-5.432-10.633 10.242c-77.481 74.628-369.723 271.692-786.797 530.552-60.887 37.79-137.572 107.013-195.603 176.57-83.292 99.833-143.857 218.614-177.522 348.159-46.45 178.743-43.888 385.115 7.495 603.663 14.147 60.17 36.37 135.77 54.8 186.428 2.152 5.912 3.627 10.743 3.28 10.735-.702-.016-.6.166-20.634-36.485-150.016-274.442-235.293-541.907-253.954-796.5-4.734-64.592-4.934-145.739-.515-208.5 21.068-299.187 139.853-581.426 350.37-832.5 48.48-57.82 93.938-105.915 169.6-179.44 46.117-44.815 51.805-50 65.544-59.756 8.275-5.876 18.85-14.086 23.5-18.245 36.165-32.348 80.085-66.117 154.455-118.757 85.145-60.266 224.937-153.645 359-239.805 41.68-26.788 57.886-37.882 109.5-74.968 180.076-129.387 404.149-304.255 614.5-479.559 58.636-48.866 59.648-49.737 85.624-73.641 59.19-54.469 102.039-85.849 130.081-95.262 10.641-3.572 21.359-3.6 27.383-.069 14.877 8.719 13.639 41.843-3.478 93.081-9.653 28.894-15.228 41.01-39.45 85.73-126.78 234.076-248.729 482.776-366.38 747.19-204.667 459.976-395.366 966.463-560.628 1489-87.729 277.387-169.789 566.545-223.987 789.27l-6.392 26.267 3.613-2.198c34.731-21.133 74.273-39.802 116.7-55.099 118.233-42.63 263.315-61.518 385.414-50.177 73.444 6.822 144.1 24.713 213.79 54.137 19.766 8.345 59.067 28.19 78.71 39.745 142.44 83.786 251.542 215.04 307.988 370.523 53.719 147.97 56.132 311.785 6.812 462.533-45.568 139.281-132.17 259.373-250.794 347.78-89.373 66.606-195.102 111.71-305.006 130.118-39.492 6.615-64.044 8.64-109.5 9.033-20.625.179-40.2.156-43.5-.051zm3043.5-668.455c-240.855-12.287-456.11-78.097-605.5-185.12-4.95-3.546-12.6-8.405-17-10.8-51.032-27.762-114.563-72.189-168-117.481-33.561-28.447-78.679-71.726-109.484-105.023-149.698-161.81-252.126-350.949-284.91-526.1-7.351-39.276-10.134-67.205-10.81-108.495-.735-44.918 1.367-73.195 8.206-110.405 23.088-125.601 95.108-235.454 210.998-321.836 87.76-65.414 199.42-116.348 327-149.162 168.697-43.39 355.93-52.016 519.5-23.936 45.34 7.784 88.95 18.495 128.5 31.562 8.25 2.726 21.525 6.311 29.5 7.967 64.826 13.46 130.367 34.737 195.5 63.466 25.534 11.263 75.357 36.133 100.5 50.167 206.176 115.082 392.947 293.023 506.73 482.772 17.166 28.625 23.592 40.374 39.654 72.5 46.684 93.372 73.089 181.308 82.275 274 2.176 21.962 2.485 79.572.539 100.5-14.728 158.361-90.172 289.86-223.776 390.04-125.767 94.302-300.38 156.548-500.422 178.389-55 6.005-78.462 7.2-148.5 7.562-34.65.179-70.875-.076-80.5-.567zm506-116.354c33.634-4.276 60.154-10.26 91-20.535 67.327-22.426 126.445-59.35 178.514-111.496 41.414-41.475 72.902-86.249 100.535-142.955 69.908-143.46 77.861-300.848 21.824-431.879-51.305-119.965-150.88-210.292-285.637-259.106-78.652-28.49-158.136-38.567-229.978-29.155-117.378 15.376-217.76 79.736-291.752 187.056-26.263 38.092-53.677 92.382-71.612 141.82-9.09 25.927-11.047 31.973-14.41 44.736-17.232 59.855-24.49 110.389-24.479 170.444.01 39.304 2.699 67.016 10.006 103 14.42 71.014 47.996 139.28 94.676 192.5 57.035 65.023 136.755 112.825 232.813 139.598 28.312 7.89 66.176 14.69 96.5 17.328 16.378 1.424 77.18.529 92-1.356zm-42-211.178c-27.236-2.438-49.75-7.919-73.638-17.927-32.288-13.528-66.303-40.075-87.776-68.505-33.953-44.955-51.98-101.705-52.56-165.46-.099-10.794 2.067-34.216 4.576-49.5 13.7-83.445 61.697-159.05 129.981-204.749 26.678-17.854 61.709-32.559 91.126-38.252 14.881-2.88 37.47-4.095 54.704-2.942 62.46 4.177 116.356 31.547 156.433 79.443 39.268 46.926 61.115 117.32 57.195 184.28-2.618 44.698-12.012 82.166-30.078 119.957-42.352 88.593-119.858 149.43-206.08 161.76-10.66 1.523-35.87 2.613-43.883 1.895zm-1629.042 179.002c-24.223-25.026-103.718-93.76-162.958-140.901-390.126-310.447-824.79-513.784-1230-575.398-71.479-10.869-169.82-20.092-214.25-20.095-5.363 0-9.75-.37-9.75-.82 0-1.856 134.585-64.206 234-108.408 325.732-144.828 630.501-261.927 873.5-335.618 41.196-12.493 41.436-12.562 41.872-12.065.198.226 2.936 8.736 6.084 18.91 37.721 121.912 98.235 303.04 146.333 438 119.833 336.25 228.79 588.804 314.37 728.683 3.762 6.151 6.841 11.439 6.841 11.75 0 1.486-1.967.171-6.042-4.038zM1389.15 2699.496c0-1.165 20.723-73.324 33.993-118.365 61.62-209.155 133.686-428.04 211.702-643 140.647-387.53 305.011-778.896 490.531-1168 60.53-126.955 141.393-288.846 204.041-408.5 49.276-94.114 125.965-235.007 135.86-249.6 1.831-2.702 1.802-3.35 3.91 86.1 14.019 594.608 69.346 1219.167 154.937 1749 10.878 67.339 27.307 160.282 35.544 201.09 1.915 9.484 3.369 17.35 3.232 17.478-.138.129-13.75 4.14-30.25 8.913-280.48 81.136-649.06 232.143-1065.92 436.705-54.048 26.523-164.347 82.262-171.916 86.877-3.159 1.926-5.664 2.502-5.664 1.302zm1626.586-654.115c-1.12-3.568-20.79-103.165-28.49-144.25-73.84-394-127.602-805.923-150.55-1153.5-9.137-138.411-13.119-241.742-14.199-368.5-.726-85.283 1.182-202.805 3.26-200.728.187.188 1.93 8.056 3.872 17.484 22.49 109.197 68.978 257.211 120.987 385.217 143.514 353.225 350.844 650.982 605.273 869.265 206.627 177.271 443.256 302.976 708.261 376.251 25.537 7.062 78.41 20.177 99 24.558 8.525 1.814 15.927 3.67 16.45 4.126.522.454-6.903.829-16.5.832-45.821.013-143.873 4.645-233.95 11.052-357.695 25.444-734.754 85.727-1085.222 173.5-14.146 3.544-26.154 6.443-26.682 6.443-.529 0-1.208-.788-1.51-1.75zm779.414-961.93c-75.876-7.793-141.85-37.803-194.555-88.5-76.417-73.505-111.645-180.54-93.937-285.419 5.7-33.763 15.31-62.58 31.315-93.901 48.57-95.057 144.764-160.857 251.399-171.967 18.86-1.964 48.762-1.961 67.512.008 71.98 7.56 138.528 38.59 189.602 88.412 28.381 27.685 46.263 51.887 63.577 86.047 23.51 46.383 34.31 91.752 34.399 144.5.105 62.358-15.634 117.955-48.4 170.964-43.117 69.757-115.09 121.917-195.412 141.618-14.397 3.531-31.263 6.46-45.356 7.877-9.488.954-51.895 1.209-60.144.361z"/>
</svg>