<svg xmlns="http://www.w3.org/2000/svg" viewBox="0 0 790.18 677.98"><defs><style>.cls-1{fill:#1168af;}.cls-2{fill:#f3a91d;}.cls-3{fill:#a0bfdd;}.cls-4{fill:#3a80bc;}.cls-5{fill:#adcee5;}.cls-6{fill:#5898c8;}.cls-7{fill:#337dba;}.cls-8{fill:#c4d0e6;}.cls-9{fill:#80b1d5;}.cls-10{fill:#fadea7;}.cls-11{fill:#5291c5;}.cls-12{fill:#90bcdc;}.cls-13{fill:#f8d48f;}.cls-14{fill:#c3e5f1;}.cls-15{fill:#cae9f3;}.cls-16{fill:#fcf2db;}.cls-17{fill:#2aa749;}.cls-18{fill:#cf2127;}.cls-19{fill:#c07c2a;}.cls-20{fill:#e26f73;}.cls-21{fill:#f48f92;}.cls-22{fill:#95b2d6;}.cls-23{fill:#aee4c8;}.cls-24{fill:#7fd09e;}.cls-25{fill:#3782bd;}.cls-26{fill:#bbdfee;}.cls-27{fill:#6daad2;}.cls-28{fill:#b0cde4;}.cls-29{fill:#fff;}.cls-30{fill:#713e18;}</style></defs><title>Asset 1</title><g id="Layer_2" data-name="Layer 2"><g id="Layer_1-2" data-name="Layer 1"><path class="cls-1" d="M134.3,482.28a7.3,7.3,0,0,0,.82-.31c9.82-5.9,20.49-9.6,31.58-12.14a140.55,140.55,0,0,1,33.4-3.64,105.71,105.71,0,0,1,102,80.72,104.34,104.34,0,0,1,2.72,32.54,105.71,105.71,0,0,1-81.24,95.42,121.93,121.93,0,0,1-14.1,2.34c-.39,0-.78.13-1.18.2-.57.42-1.23.2-1.86.26H191c-23.4-1.38-44.67-8.61-62.62-23.95s-28.24-35.08-30.17-58.9c-.44-5.34-1.07-10.69-1.08-16a205,205,0,0,1,4.25-43.22c3.3-15.46,6.42-31,10.32-46.28C118.4,463,126,436.92,134,411c7.43-24,15.08-48,23.19-71.8,11.59-34.07,23.38-68.07,35.86-101.83,4-10.9,8-21.85,12.14-32.7a7.45,7.45,0,0,1,1.57-2.18c-.69.34-.9,1.16-1.45,1.67-5.54,5.48-11.93,9.89-18.24,14.38-31.12,22.15-63.47,42.42-95.83,62.66a132.61,132.61,0,0,0-45.35,47.67C36.09,346,31,364.59,29,384.06c-2.2,21.54-.05,42.86,4.65,63.93a207.75,207.75,0,0,0,5.93,21.87,6.19,6.19,0,0,1,.45,2.92c-.17.65-.4,1.24-1.23,1.24-1.62-.85-2.26-2.47-3-3.94C24,447.56,14.11,424.27,7.8,399.61,4,384.78,1.05,369.79.6,354.41v-3.86C.49,348.68,1,346.74,0,345v-9.55c.93-1.74.49-3.63.6-5.46v-3.69c.29-14.31,3-28.24,6.85-42,8.9-32,25.06-60,46.32-85.29,5.32-6.33,10.88-12.45,16.76-18.18,6.73-6.57,13.47-13.16,20.8-19.17,25.06-20.56,52.6-37.48,79.55-55.28,15.86-10.48,30.92-22.06,46-33.57S247,49.34,261.81,37.28Q279.36,23,296.32,7.93a76.61,76.61,0,0,1,9-6.42,9.81,9.81,0,0,1,4.26-1.2c1.06.12,2.17-.28,3.2.27a4.64,4.64,0,0,1,1.65,4.26,23.48,23.48,0,0,1-.59,4.43,55.88,55.88,0,0,1-5,13.66c-24.4,44.69-46.33,90.58-66.43,137.35q-27.62,64.23-50.71,130.22Q169.6,353,151.26,416.78c-6,20.9-11.68,41.9-16.86,63-.09.39-.14.78-.21,1.17S133.75,481.89,134.3,482.28Z"/><path class="cls-2" d="M647.52,335c4.23,1,8.49,2,12.71,3.13a158.79,158.79,0,0,1,36.48,15.19A212.65,212.65,0,0,1,739,384.61a195.45,195.45,0,0,1,31.81,38.54,134.09,134.09,0,0,1,16.55,37.49,59.64,59.64,0,0,1,2.27,12.58c.5.75-.15,1.73.51,2.44v17.9c-.53.55-.23,1.24-.31,1.86a2.17,2.17,0,0,1-.18,1.15,66.71,66.71,0,0,1-5.09,18.92c-5.83,13.94-15.18,25.1-27.15,34.16a124.62,124.62,0,0,1-35,18.19,185.49,185.49,0,0,1-31.21,7.6,219.72,219.72,0,0,1-44,2.14,193.65,193.65,0,0,1-21.05-2.13,197.31,197.31,0,0,1-29-6.57,137.41,137.41,0,0,1-39.55-19.1c-1.2-.86-2.48-1.62-3.73-2.42a8,8,0,0,0-1.86-1.24l0,0c-20.68-15.92-31.77-37.24-34.78-62.84-2.09-17.76-.13-35.27,4.88-52.46,6.09-20.91,15.08-40.39,28.7-57.5,16.86-21.18,38.17-35.18,65.36-39.06,10.14-1.44,20.36-1.83,30.45.79A1.69,1.69,0,0,0,647.52,335Z"/><path class="cls-3" d="M0,328.84a1.63,1.63,0,0,0,.6-1.47,2.11,2.11,0,0,1,.51-1.54l0,4.14c-.76.64.53,2.24-1.14,2.45Z"/><path class="cls-4" d="M0,332.42a1.73,1.73,0,0,0,.63-1.18A9.77,9.77,0,0,1,1.14,330c0,.86.05,1.73.05,2.6A3.37,3.37,0,0,1,0,335.41Z"/><path class="cls-5" d="M1.13,354.53c-.61-.6-.49-1.38-.54-2.11,0-.56,0-1.13-.59-1.49v-3c1.67.22.39,1.79,1.12,2.44A21.31,21.31,0,0,1,1.13,354.53Z"/><path class="cls-6" d="M1.12,350.38a2,2,0,0,1-.51-1.26A1.46,1.46,0,0,0,0,347.94v-3a3.07,3.07,0,0,1,1.15,2.53C1.19,348.45,1.14,349.41,1.12,350.38Z"/><path class="cls-7" d="M195.67,677.45h6.09c.17.13.22.26.15.37s-.13.17-.19.17h-6c-.17-.1-.23-.2-.2-.33S195.62,677.45,195.67,677.45Z"/><path class="cls-8" d="M309.12.57a2.73,2.73,0,0,0,0-.57h3.58c0,.19,0,.39,0,.58Z"/><path class="cls-9" d="M195.67,677.45a3.08,3.08,0,0,1,.08.53h-3c-.19-.12-.26-.24-.2-.37s.12-.19.18-.19Z"/><path class="cls-10" d="M790.18,475.66c-.87-.67-.59-1.57-.51-2.44a2.94,2.94,0,0,1,.51,0Z"/><path class="cls-11" d="M201.72,678c0-.18,0-.36,0-.54l2.41,0q.22.19.12.36t-.18.15Z"/><path class="cls-12" d="M204.11,678a4.43,4.43,0,0,1,.06-.51l2.34-.05c.19.13.25.26.18.38s-.13.18-.19.18Z"/><path class="cls-13" d="M789.65,495.4c-.09-.69-.2-1.38.53-1.84v1.79C790,495.61,789.85,495.62,789.65,495.4Z"/><path class="cls-14" d="M192.75,677.42a2.09,2.09,0,0,1,0,.56H191c0-.19,0-.37,0-.55Z"/><path class="cls-15" d="M206.5,678a3.49,3.49,0,0,1,0-.56h1.79c0,.19,0,.38,0,.57Z"/><path class="cls-16" d="M789.65,495.4a4.75,4.75,0,0,1,.53,0v1.2l-.49,0C789.68,496.18,789.67,495.79,789.65,495.4Z"/><path class="cls-17" d="M368.56,17.13c.14,1,.2,1.32.21,1.6.23,9.14.39,18.29.69,27.44q.57,17.14,1.34,34.28.45,10.58,1.13,21.15c.66,10.32,1.4,20.63,2.12,30.94.45,6.35.9,12.7,1.42,19,.46,5.65,1,11.29,1.52,16.93.47,5.15.92,10.3,1.42,15.44.47,4.85,1,9.69,1.51,14.53.47,4.35.93,8.7,1.43,13.05q1,9.18,2.17,18.35,1,7.85,2,15.68c.86,6.5,1.71,13,2.66,19.49,1.05,7.28,2.14,14.55,3.34,21.81,1.63,9.9,3.38,19.78,5.09,29.67.13.78.25,1.57.4,2.35a12.3,12.3,0,0,1,.57,4.35,13.36,13.36,0,0,1-3.92,1.33c-17.58,5.06-34.81,11.15-51.88,17.71-31.55,12.13-62.4,25.88-92.88,40.46Q229.8,391.87,211,401.57c-.79.41-1.6.76-2.39,1.14-.5-.64-.2-1.2,0-1.76q7.3-25.8,15.51-51.35c17-53,36.67-105,58.49-156.25q31-72.85,67.77-143c5.37-10.21,10.83-20.36,16.53-30.39C367.28,19.19,367.75,18.45,368.56,17.13Z"/><path class="cls-18" d="M651.71,276.9c-4.27.18-8.54.41-12.82.52-8.45.21-16.88.83-25.31,1.44q-13.23,1-26.42,2.38c-9.88,1.06-19.75,2.23-29.59,3.57q-18.17,2.47-36.21,5.65-23,4-45.84,9.16c-7.84,1.78-15.64,3.73-23.46,5.61a1.66,1.66,0,0,1-1.3,0,90.71,90.71,0,0,1-2-9.17c-2.35-12.59-4.74-25.18-7-37.8-1.61-9.2-3-18.43-4.43-27.66-1.16-7.46-2.29-14.93-3.34-22.41-.94-6.69-1.78-13.39-2.61-20.1q-1.43-11.39-2.75-22.79c-.53-4.64-1-9.29-1.42-13.94-.53-5.34-1.07-10.68-1.54-16s-.95-10.69-1.3-16.05c-.63-9.62-1.3-19.24-1.73-28.87-.45-10.24-.9-20.47-.85-30.72L422,33.44c.73-.62-.53-2.14,1.07-2.37a365.8,365.8,0,0,0,19.13,59.19,359.69,359.69,0,0,0,47.24,82.24c20.42,26.44,44.39,49.06,72.59,67.09A272.14,272.14,0,0,0,641.53,274c3.36.86,6.75,1.61,10.13,2.41.23.1.31.21.25.33S651.78,276.9,651.71,276.9Z"/><path class="cls-17" d="M473.3,554.41a439.79,439.79,0,0,0-40.69-33.15,449,449,0,0,0-82.19-47.54,345.57,345.57,0,0,0-62.93-21,283.6,283.6,0,0,0-29.95-5.19c-7.31-.85-14.63-1.53-22-1.74-.36,0-.78.12-1.16-.37.3-.8,1.17-.92,1.81-1.22C245.12,440,254,435.86,263,431.83c33.36-15,67.15-28.94,101.62-41.2q18.11-6.44,36.51-12l2.29-.68c.65-.2,1.17-.08,1.41.64s.51,1.5.75,2.26q12.33,39.41,26.48,78.19c7.84,21.36,16.1,42.56,25.53,63.29a324.9,324.9,0,0,0,15.87,31,10.5,10.5,0,0,1,.49,1.08A.39.39,0,0,1,473.3,554.41Z"/><path class="cls-19" d="M647.52,335a1.88,1.88,0,0,1-1.69.34,63.84,63.84,0,0,0-11.2-1.11c-2.09,0-4.17,0-6.26,0a85.11,85.11,0,0,0-20.29,2.41,89.44,89.44,0,0,0-21.46,7.82,91.57,91.57,0,0,0-16.43,10.67c-3.53,2.89-7,5.85-10.22,9.08a123.59,123.59,0,0,0-11.36,13.35,159,159,0,0,0-16.86,29c-1.5,3.23-2.77,6.58-4,9.91a159.09,159.09,0,0,0-6.26,20.14,145.38,145.38,0,0,0-2.94,15.13c-.29,2.24-.22,4.55-.94,6.75a7.1,7.1,0,0,0-.11,2.07c0,6.07-.07,12.13,0,18.19a45.43,45.43,0,0,0,.72,7.08c.63,3.6,1.38,7.19,2.25,10.74a86.06,86.06,0,0,0,8.3,21.28,92.84,92.84,0,0,0,8.89,13.36,100.35,100.35,0,0,0,10.16,10.87c.43.4.94.72,1.41,1.09a8.62,8.62,0,0,1,2.83,3c-1.08,0-1.81-.76-2.64-1.27a158.68,158.68,0,0,1-20.56-15.27,191.84,191.84,0,0,1-42.35-52.36A139.33,139.33,0,0,1,472.37,441a98.69,98.69,0,0,1-2.63-21.85q0-31.89,22.66-54.3a105.28,105.28,0,0,1,25.06-18.07A156.4,156.4,0,0,1,554.8,333,192.16,192.16,0,0,1,578.86,329,182.07,182.07,0,0,1,600,327.89c14.65.14,29.14,1.65,43.28,5.73.86.24,1.7.54,2.55.81l.6.31Z"/><path class="cls-18" d="M571.07,161.84c-26.56.16-47.83-21.75-47.83-47.74a47.88,47.88,0,1,1,95.76.11C618.81,141.45,596.34,162.18,571.07,161.84Z"/><path class="cls-20" d="M423.09,31.07a1.22,1.22,0,0,0-.61,1.13,1.71,1.71,0,0,1-.46,1.24,25.17,25.17,0,0,1,0-5.28C422.94,29.18,422.94,29.18,423.09,31.07Z"/><path class="cls-19" d="M552,546.12a1.77,1.77,0,0,1,1.86,1.24A2.46,2.46,0,0,1,552,546.12Z"/><path class="cls-21" d="M651.71,276.9a.78.78,0,0,0-.05-.52,5.08,5.08,0,0,1,.87,0,1.64,1.64,0,0,1,.51.26c-.16.11-.3.29-.47.31A4.15,4.15,0,0,1,651.71,276.9Z"/><path class="cls-22" d="M134.3,482.28c-.22.35-.46.29-.55,0a1.14,1.14,0,0,1,.44-1.25C134.23,481.42,134.26,481.85,134.3,482.28Z"/><path class="cls-23" d="M474.55,555c.32.22.6.48.2.82-.08.07-.46-.15-.66-.29a1.79,1.79,0,0,1-.3-.44A.44.44,0,0,1,474.55,555Z"/><path class="cls-24" d="M474.55,555l-.76.09c-.17-.23-.33-.47-.49-.7l.66,0C474.33,554.45,474.46,554.72,474.55,555Z"/><path class="cls-2" d="M646.43,334.74l-.6-.31A.52.52,0,0,1,646.43,334.74Z"/><path class="cls-25" d="M40,476.24a6.83,6.83,0,0,1-1.17-2.39c.49-.28.5-.79.61-1.25a9.2,9.2,0,0,1,1.3,3.65A.44.44,0,0,1,40,476.24Z"/><path class="cls-26" d="M206,204.21l-.79-.75c.23-.67.81-1,1.51-1.52A2.46,2.46,0,0,1,206,204.21Z"/><path class="cls-27" d="M40,476.24h.74c.46.25.47.7.53,1.14a.54.54,0,0,1-.1.75A3.2,3.2,0,0,1,40,476.24Z"/><path class="cls-28" d="M41.17,478.14c0-.25.07-.5.1-.75a3.54,3.54,0,0,1,.45.71c.09.25.09.66-.2.69S41.16,478.43,41.17,478.14Z"/><path class="cls-29" d="M645.14,492.85a96.86,96.86,0,0,1,8.74-39,80,80,0,0,1,17.38-25.46,59.1,59.1,0,0,1,29.24-15.77,61.51,61.51,0,0,1,18.67-1.06,83.68,83.68,0,0,1,27.44,7.5c12.93,6,23.5,14.79,31,27A68.83,68.83,0,0,1,787.32,475c2.39,21-5.7,44.9-18.49,60.33-9.81,11.83-22,20-37,23.59a67.27,67.27,0,0,1-21,1.71,78.64,78.64,0,0,1-33.11-9.92c-17.4-9.87-27.82-24.78-31.39-44.46A67.15,67.15,0,0,1,645.14,492.85Z"/><path class="cls-30" d="M685.37,492.66a46.49,46.49,0,0,1,9-28.44,40.86,40.86,0,0,1,21.24-15.56,32.93,32.93,0,0,1,36.91,13.16,38,38,0,0,1,6.12,16.3c1.88,14-1.88,26.36-11,37.09a39,39,0,0,1-18.87,12.46,32.93,32.93,0,0,1-37.35-14.07,39,39,0,0,1-5.79-17.35C685.56,495.16,685.48,494.07,685.37,492.66Z"/></g></g></svg>