<svg fill="#000000" xmlns="http://www.w3.org/2000/svg" viewBox="0 0 30 30" width="30px" height="30px"><path d="M 15.009766 2 A 1.0001 1.0001 0 0 0 14.425781 2.1816406 L 2.4257812 10.580078 A 1.0005192 1.0005192 0 0 0 3.5742188 12.21875 L 4 11.919922 L 4 23 C 4 24.093063 4.9069372 25 6 25 L 8 25 L 8 23 L 6 23 L 6 10.521484 L 15 4.2207031 L 24 10.521484 L 24 23 L 22 23 L 22 25 L 24 25 C 25.093063 25 26 24.093063 26 23 L 26 11.919922 L 26.425781 12.21875 A 1.0005193 1.0005193 0 1 0 27.574219 10.580078 L 15.574219 2.1816406 A 1.0001 1.0001 0 0 0 15.009766 2 z M 11 13 C 10.448 13 10 13.448 10 14 L 10 27 A 1 1 0 0 0 11 28 A 1 1 0 0 0 11.626953 27.777344 L 11.642578 27.763672 L 15 25 L 18.332031 27.744141 A 1 1 0 0 0 18.373047 27.777344 A 1 1 0 0 0 19 28 A 1 1 0 0 0 20 27 L 20 14 C 20 13.448 19.552 13 19 13 L 11 13 z"/></svg>