<svg xmlns="http://www.w3.org/2000/svg" viewBox="0 0 128 128"><path fill="#000000" d="M78.6,89.5c-0.5,0-1-0.1-1.4-0.3l-13.2-7l-13.2,7c-1,0.5-2.2,0.4-3.2-0.2c-0.9-0.7-1.4-1.8-1.2-2.9l2.5-14.7L38.2,60.8c-1.2-1.2-1.2-3.1-0.1-4.2s3.1-1.2,4.2-0.1l11.8,11.5c0.7,0.7,1,1.7,0.9,2.7L53.4,81l9.2-4.9c0.9-0.5,1.9-0.5,2.8,0l9.2,4.9l-1.8-10.3c-0.2-1,0.2-2,0.9-2.7l7.5-7.3l-10.3-1.5c-1-0.1-1.8-0.8-2.3-1.6L64,48.3l-0.4,0.8c-0.7,1.5-2.5,2.1-4,1.4c-1.5-0.7-2.1-2.5-1.4-4l3.1-6.3c0.5-1,1.5-1.7,2.7-1.7l0,0c1.1,0,2.2,0.6,2.7,1.7l6.6,13.4l14.8,2.1c1.1,0.2,2.1,1,2.4,2c0.4,1.1,0.1,2.3-0.8,3.1L79.1,71.3L81.6,86c0.2,1.1-0.3,2.3-1.2,2.9C79.9,89.3,79.2,89.5,78.6,89.5z"/><path fill="#000000" d="M56.7,59.3c-0.8,0-1.6-0.3-2.1-0.9c-0.1-0.1-0.3-0.3-0.4-0.5c-0.1-0.2-0.2-0.3-0.3-0.5c-0.1-0.2-0.1-0.4-0.2-0.6c0-0.2-0.1-0.4-0.1-0.6c0-0.8,0.3-1.6,0.9-2.1c0.7-0.7,1.7-1,2.7-0.8c0.2,0,0.4,0.1,0.6,0.2c0.2,0.1,0.4,0.2,0.5,0.3c0.2,0.1,0.3,0.2,0.5,0.4c0.6,0.6,0.9,1.3,0.9,2.1c0,0.2,0,0.4-0.1,0.6c0,0.2-0.1,0.4-0.2,0.6c-0.1,0.2-0.2,0.4-0.3,0.5c-0.1,0.2-0.2,0.3-0.4,0.5c-0.1,0.1-0.3,0.3-0.5,0.4c-0.2,0.1-0.3,0.2-0.5,0.3c-0.2,0.1-0.4,0.1-0.6,0.2C57.1,59.3,56.9,59.3,56.7,59.3z"/><path fill="#000000" d="M64,117c-29.2,0-53-23.8-53-53s23.8-53,53-53s53,23.8,53,53S93.2,117,64,117z M64,17c-25.9,0-47,21.1-47,47s21.1,47,47,47s47-21.1,47-47S89.9,17,64,17z"/></svg>
