<?xml version="1.0" encoding="UTF-8"?>
<svg xmlns="http://www.w3.org/2000/svg" xmlns:xlink="http://www.w3.org/1999/xlink" viewBox="0 0 48 48" version="1.1">
<g id="surface1512388">
<path style="fill-rule:nonzero;fill:currentColor;fill-opacity:1;stroke-width:5;stroke-linecap:butt;stroke-linejoin:round;stroke:currentColor;stroke-opacity:1;stroke-miterlimit:10;" d="M 150.00457 47.294534 C 151.157806 50.019053 150.523526 53.176035 148.404456 55.237443 L 69.566394 134.061089 C 66.769798 136.857685 62.228933 136.857685 59.432337 134.061089 L 30.76002 105.403187 C 28.900428 103.601257 28.136409 100.9344 28.799519 98.426112 C 29.448214 95.917825 31.408715 93.942909 33.917002 93.294215 C 36.439705 92.64552 39.106562 93.395123 40.894077 95.26913 L 64.506573 118.867212 L 138.270399 45.103386 C 139.567789 43.76275 141.326473 42.984316 143.200481 42.926654 C 146.141231 42.840162 148.851335 44.58443 150.00457 47.294534 Z M 150.00457 47.294534 " transform="matrix(0.270977,0,0,0.270977,0.696,0.696)"/>
<path style=" stroke:none;fill-rule:nonzero;fill:currentColor;fill-opacity:1;" d="M 39.5 12.328125 C 38.992188 12.34375 38.515625 12.554688 38.164062 12.917969 L 18.175781 32.90625 L 11.777344 26.511719 C 11.292969 26.003906 10.570312 25.800781 9.886719 25.976562 C 9.207031 26.152344 8.675781 26.6875 8.5 27.367188 C 8.320312 28.046875 8.527344 28.769531 9.03125 29.257812 L 16.800781 37.023438 C 17.558594 37.78125 18.789062 37.78125 19.546875 37.023438 L 40.910156 15.664062 C 41.484375 15.105469 41.65625 14.25 41.34375 13.511719 C 41.03125 12.777344 40.296875 12.304688 39.5 12.328125 Z M 39.5 12.328125 "/>
</g>
</svg>
