<?xml version="1.0" encoding="UTF-8"?>
<svg xmlns="http://www.w3.org/2000/svg" xmlns:xlink="http://www.w3.org/1999/xlink" width="48pt" height="48pt" viewBox="0 0 48 48" version="1.1">
<g id="surface1512317">
<path style="fill-rule:nonzero;fill:currentColor;fill-opacity:1;stroke-width:5;stroke-linecap:butt;stroke-linejoin:round;stroke:currentColor;stroke-opacity:1;stroke-miterlimit:10;" d="M 40.89728 30.759249 L 86 75.861968 L 131.10272 30.759249 C 132.398775 29.434392 134.17005 28.656759 136.02773 28.599157 C 138.979855 28.512753 141.68717 30.240826 142.83922 32.962542 C 143.991269 35.684258 143.357642 38.837992 141.240751 40.89728 L 96.138032 86 L 141.240751 131.10272 C 143.112831 132.902797 143.861663 135.56691 143.199235 138.072617 C 142.551207 140.592724 140.592724 142.551207 138.072617 143.199235 C 135.56691 143.861663 132.902797 143.112831 131.10272 141.240751 L 86 96.138032 L 40.89728 141.240751 C 39.097203 143.112831 36.43309 143.861663 33.927383 143.199235 C 31.407276 142.551207 29.448793 140.592724 28.800765 138.072617 C 28.138337 135.56691 28.887169 132.902797 30.759249 131.10272 L 75.861968 86 L 30.759249 40.89728 C 28.67116 38.866794 28.023132 35.770662 29.117579 33.063347 C 30.226426 30.370432 32.847337 28.599157 35.756261 28.599157 C 37.700344 28.599157 39.558023 29.37679 40.89728 30.759249 Z M 40.89728 30.759249 " transform="matrix(0.271256,0,0,0.271256,0.672,0.672)"/>
<path style=" stroke:none;fill-rule:nonzero;fill:currentColor;fill-opacity:1;" d="M 10.371094 8.429688 C 9.582031 8.429688 8.871094 8.910156 8.570312 9.640625 C 8.273438 10.375 8.449219 11.214844 9.015625 11.765625 L 21.25 24 L 9.015625 36.234375 C 8.507812 36.722656 8.304688 37.445312 8.484375 38.125 C 8.660156 38.808594 9.191406 39.339844 9.875 39.515625 C 10.554688 39.695312 11.277344 39.492188 11.765625 38.984375 L 24 26.75 L 36.234375 38.984375 C 36.722656 39.492188 37.445312 39.695312 38.125 39.515625 C 38.808594 39.339844 39.339844 38.808594 39.515625 38.125 C 39.695312 37.445312 39.492188 36.722656 38.984375 36.234375 L 26.75 24 L 38.984375 11.765625 C 39.558594 11.207031 39.730469 10.351562 39.417969 9.613281 C 39.105469 8.875 38.371094 8.40625 37.570312 8.429688 C 37.066406 8.445312 36.585938 8.65625 36.234375 9.015625 L 24 21.25 L 11.765625 9.015625 C 11.402344 8.640625 10.898438 8.429688 10.371094 8.429688 Z M 10.371094 8.429688 "/>
</g>
</svg>
