<?xml version="1.0" encoding="UTF-8"?>
<svg xmlns="http://www.w3.org/2000/svg" xmlns:xlink="http://www.w3.org/1999/xlink" width="48pt" height="48pt" viewBox="0 0 48 48" version="1.1">
<g id="surface1518218">
<path style="fill-rule:nonzero;fill:currentColor;fill-opacity:1;stroke-width:5;stroke-linecap:butt;stroke-linejoin:round;stroke:currentColor;stroke-opacity:1;stroke-miterlimit:10;" d="M 150.500346 86 C 150.500346 89.960169 147.289009 93.171505 143.32884 93.171505 L 93.171505 93.171505 L 93.171505 143.32884 C 93.171505 147.289009 89.960169 150.500346 86 150.500346 C 82.039831 150.500346 78.828495 147.289009 78.828495 143.32884 L 78.828495 93.171505 L 28.67116 93.171505 C 24.710991 93.171505 21.499654 89.960169 21.499654 86 C 21.499654 82.039831 24.710991 78.828495 28.67116 78.828495 L 78.828495 78.828495 L 78.828495 28.67116 C 78.828495 24.710991 82.039831 21.499654 86 21.499654 C 89.960169 21.499654 93.171505 24.710991 93.171505 28.67116 L 93.171505 78.828495 L 143.32884 78.828495 C 147.289009 78.828495 150.500346 82.039831 150.500346 86 Z M 150.500346 86 " transform="matrix(0.271256,0,0,0.271256,0.672,0.672)"/>
<path style=" stroke:none;fill-rule:nonzero;fill:currentColor;fill-opacity:1;" d="M 39.550781 22.054688 L 25.945312 22.054688 L 25.945312 8.449219 C 25.945312 7.375 25.074219 6.503906 24 6.503906 C 22.925781 6.503906 22.054688 7.375 22.054688 8.449219 L 22.054688 22.054688 L 8.449219 22.054688 C 7.375 22.054688 6.503906 22.925781 6.503906 24 C 6.503906 25.074219 7.375 25.945312 8.449219 25.945312 L 22.054688 25.945312 L 22.054688 39.550781 C 22.054688 40.625 22.925781 41.496094 24 41.496094 C 25.074219 41.496094 25.945312 40.625 25.945312 39.550781 L 25.945312 25.945312 L 39.550781 25.945312 C 40.625 25.945312 41.496094 25.074219 41.496094 24 C 41.496094 22.925781 40.625 22.054688 39.550781 22.054688 Z M 39.550781 22.054688 "/>
</g>
</svg>
