<?xml version="1.0"?>
<svg xmlns="http://www.w3.org/2000/svg" fill="#000000" viewBox="0 0 30 30" width="30px" height="30px">    <path d="M 26 3 A 1 1 0 0 0 25.716797 3.0429688 A 1 1 0 0 0 25.636719 3.0683594 L 3.6503906 10.060547 L 3.6503906 10.064453 A 1 1 0 0 0 3 11 A 1 1 0 0 0 3.4824219 11.853516 L 10.164062 17.154297 L 23.373047 6.6269531 L 12.845703 19.835938 L 18.142578 26.513672 A 1 1 0 0 0 19 27 A 1 1 0 0 0 19.935547 26.349609 L 19.939453 26.349609 L 26.9375 4.34375 A 1 1 0 0 0 26.957031 4.2832031 A 1 1 0 0 0 27 4 A 1 1 0 0 0 26 3 z"/></svg>
