<svg fill="#000000" xmlns="http://www.w3.org/2000/svg" viewBox="0 0 26 26" width="26px" height="26px"><path d="M 25.601563 8.101563 L 24 6.398438 C 23.5 6.800781 22.800781 7.101563 22 7.101563 C 20.300781 7.101563 18.898438 5.699219 18.898438 4 C 18.898438 3.300781 19.199219 2.601563 19.601563 2 L 18 0.398438 C 17.601563 0 17 0 16.601563 0.398438 L 13.800781 3.199219 C 13.898438 3.199219 14 3.300781 14 3.300781 L 14.300781 3.601563 C 14.5 3.800781 14.5 4.101563 14.300781 4.300781 C 14.199219 4.398438 14.101563 4.398438 13.898438 4.398438 C 13.699219 4.398438 13.601563 4.398438 13.5 4.300781 L 13.300781 4 C 13.199219 3.898438 13.199219 3.898438 13.199219 3.800781 L 0.398438 16.601563 C 0 17 0 17.601563 0.398438 18 L 2 19.699219 C 2.5 19.199219 3.199219 19 4 19 C 5.699219 19 7.101563 20.398438 7.101563 22.101563 C 7.101563 22.898438 6.800781 23.601563 6.398438 24.101563 L 8 25.699219 C 8.398438 26.101563 9 26.101563 9.398438 25.699219 L 22.199219 12.898438 C 22.199219 12.898438 22.101563 12.898438 22.101563 12.800781 L 21.800781 12.5 C 21.601563 12.300781 21.601563 12 21.800781 11.800781 C 22 11.601563 22.300781 11.601563 22.5 11.800781 L 22.800781 12.101563 C 22.800781 12.101563 22.800781 12.199219 22.898438 12.199219 L 25.601563 9.5 C 26 9.101563 26 8.398438 25.601563 8.101563 Z M 15 5 C 15.199219 4.800781 15.5 4.800781 15.699219 5 L 16 5.300781 C 16.199219 5.5 16.199219 5.800781 16 6 C 15.898438 6.101563 15.800781 6.101563 15.601563 6.101563 C 15.398438 6.101563 15.300781 6.101563 15.199219 6 L 15 5.699219 C 14.800781 5.5 14.800781 5.199219 15 5 Z M 16.699219 15.300781 C 16.699219 15.398438 16.5 15.5 16.398438 15.5 L 13.699219 16 L 12.5 18.398438 C 12.398438 18.5 12.300781 18.601563 12.199219 18.601563 C 12.101563 18.601563 12 18.601563 12 18.5 C 12 18.5 11.898438 18.398438 11.898438 18.398438 L 10.699219 16 L 8 15.601563 C 7.898438 15.601563 7.800781 15.5 7.699219 15.398438 C 7.699219 15.300781 7.699219 15.101563 7.800781 15 L 9.699219 13.101563 L 9.199219 10.5 C 9.199219 10.398438 9.199219 10.199219 9.300781 10.101563 C 9.398438 10 9.601563 10 9.699219 10.101563 L 12.101563 11.300781 L 14.5 10.101563 C 14.699219 10 15.101563 10.199219 15 10.5 L 14.5 13.101563 L 16.398438 15 C 16.699219 15 16.699219 15.199219 16.699219 15.300781 Z M 17.699219 7.699219 C 17.601563 7.800781 17.5 7.800781 17.300781 7.800781 C 17.101563 7.800781 17 7.800781 16.898438 7.699219 L 16.601563 7.398438 C 16.398438 7.199219 16.398438 6.898438 16.601563 6.699219 C 16.800781 6.5 17.101563 6.5 17.300781 6.699219 L 17.699219 7 C 17.898438 7.199219 17.898438 7.5 17.699219 7.699219 Z M 19.398438 9.398438 C 19.300781 9.5 19.199219 9.5 19 9.5 C 18.800781 9.5 18.699219 9.5 18.601563 9.398438 L 18.300781 9.101563 C 18.101563 8.898438 18.101563 8.601563 18.300781 8.398438 C 18.5 8.199219 18.800781 8.199219 19 8.398438 L 19.300781 8.699219 C 19.601563 8.898438 19.601563 9.199219 19.398438 9.398438 Z M 21.101563 11.101563 C 21 11.199219 20.898438 11.199219 20.699219 11.199219 C 20.5 11.199219 20.398438 11.199219 20.300781 11.101563 L 20 10.800781 C 19.800781 10.601563 19.800781 10.300781 20 10.101563 C 20.199219 9.898438 20.5 9.898438 20.699219 10.101563 L 21 10.398438 C 21.300781 10.601563 21.300781 10.898438 21.101563 11.101563 Z"/></svg>